<?xml version="1.0" encoding="UTF-8" standalone="no"?><!-- Generator: Gravit.io --><svg xmlns="http://www.w3.org/2000/svg" xmlns:xlink="http://www.w3.org/1999/xlink" style="isolation:isolate" viewBox="0 0 500 500" width="500pt" height="500pt"><defs><clipPath id="_clipPath_IF9807TB7A6FuVNw7Bn6jP2Jom54Yj1Y"><rect width="500" height="500"/></clipPath></defs><g clip-path="url(#_clipPath_IF9807TB7A6FuVNw7Bn6jP2Jom54Yj1Y)"><path d=" M 216.497 81.895 C 235.615 89.06 259.371 120.448 216.497 120.448 Q 173.623 120.448 216.497 157.737 L 216.497 157.737" fill="none" vector-effect="non-scaling-stroke" stroke-width="9" stroke="rgb(23,76,96)" stroke-linejoin="miter" stroke-linecap="square" stroke-miterlimit="3"/><ellipse vector-effect="non-scaling-stroke" cx="195.0595888134689" cy="48.947678721627085" rx="33.503355624038335" ry="32.947678721627085" fill="rgb(227,194,163)" stroke-width="9" stroke="rgb(23,76,96)" stroke-linejoin="miter" stroke-linecap="butt" stroke-miterlimit="3"/><path d=" M 58 176.387 L 73.463 458.618 L 332.47 484 L 409.867 436.238 L 409.867 188.82 L 332.47 144.061 L 58 176.387 Z " fill="rgb(227,194,163)" vector-effect="non-scaling-stroke" stroke-width="9" stroke="rgb(23,76,96)" stroke-linejoin="miter" stroke-linecap="square" stroke-miterlimit="3"/><path d=" M 126.295 365.37 Q 139.062 374.641 149.49 380.289 C 159.918 385.937 188.204 393.354 216.497 380.289 Q 244.79 367.225 253.866 350.45 L 253.866 350.45" fill="rgb(227,194,163)" vector-effect="non-scaling-stroke" stroke-width="9" stroke="rgb(23,76,96)" stroke-linejoin="miter" stroke-linecap="square" stroke-miterlimit="3"/><path d=" M 409.867 436.238 L 409.867 194.653 L 332.47 149.034 L 332.47 477.268 L 409.867 436.238 Z " fill="rgb(23,76,96)" vector-effect="non-scaling-stroke" stroke-width="9" stroke="rgb(23,76,96)" stroke-linejoin="miter" stroke-linecap="square" stroke-miterlimit="3"/><ellipse vector-effect="non-scaling-stroke" cx="125.00671377428182" cy="296.31324650492866" rx="27.060402619415584" ry="29.164903041959917" fill="rgb(23,76,96)" stroke-width="9" stroke="rgb(23,76,96)" stroke-linejoin="miter" stroke-linecap="butt" stroke-miterlimit="3"/><ellipse vector-effect="non-scaling-stroke" cx="244.86174922225112" cy="287.0412815590454" rx="27.060402619415555" ry="29.164903041959917" fill="rgb(23,76,96)" stroke-width="9" stroke="rgb(23,76,96)" stroke-linejoin="miter" stroke-linecap="butt" stroke-miterlimit="3"/><path d=" M 244.862 157.737 C 233.525 195.37 236.115 234.339 244.862 262.175" fill="none" vector-effect="non-scaling-stroke" stroke-width="9" stroke="rgb(23,76,96)" stroke-linejoin="miter" stroke-linecap="butt" stroke-miterlimit="3"/><path d=" M 125.007 171.414 C 113.67 205.91 116.26 241.632 125.007 267.148" fill="none" vector-effect="non-scaling-stroke" stroke-width="9" stroke="rgb(23,76,96)" stroke-linejoin="miter" stroke-linecap="butt" stroke-miterlimit="3"/><ellipse vector-effect="non-scaling-stroke" cx="403.342283573985" cy="323.09723185818444" rx="38.65771802773651" ry="50.92924164081353" fill="rgb(227,194,163)"/><line x1="393.034" y1="304.448" x2="413.651" y2="341.747" vector-effect="non-scaling-stroke" stroke-width="9" stroke="rgb(23,76,96)" stroke-linejoin="miter" stroke-linecap="square" stroke-miterlimit="3"/><line x1="413.651" y1="304.448" x2="393.034" y2="341.747" vector-effect="non-scaling-stroke" stroke-width="9" stroke="rgb(23,76,96)" stroke-linejoin="miter" stroke-linecap="square" stroke-miterlimit="3"/></g></svg>